<?xml version="1.0" encoding="iso-8859-1"?>
<!-- Generator: Adobe Illustrator 19.0.0, SVG Export Plug-In . SVG Version: 6.00 Build 0)  -->
<svg version="1.1" id="Layer_1" xmlns="http://www.w3.org/2000/svg" xmlns:xlink="http://www.w3.org/1999/xlink" x="0px" y="0px"
	 viewBox="0 0 482.06 482.06" style="enable-background:new 0 0 482.06 482.06;" xml:space="preserve">
<g>
	<g id="XMLID_21_">
		<g>
			<polygon style="fill:#546A79;" points="351.03,24.56 351.03,139.56 321.03,114.56 161.03,114.56 131.03,139.56 131.03,11.56 
				156.03,19.56 176.03,8.56 196.03,19.56 216.03,8.56 236.03,19.56 256.03,8.56 281.03,19.56 306.03,8.56 326.03,19.56 
				351.03,11.56 			"/>
			<path style="fill:#FFE1B2;" d="M381.03,384.56l0.15-0.25c49.65,29.56,49.85,65.25,49.85,65.25s0,11,0,25h-35
				c0,0,4.58-24.58-15-45S381.03,384.56,381.03,384.56z"/>
			<path style="fill:#FFD7A3;" d="M351.03,164.56c16.6,0,30,6.2,30,20c0,12.8-15.8,27.6-31.3,29.7c0.9-6.4,1.3-13,1.3-19.7V164.56z"
				/>
			<path style="fill:#FFE1B2;" d="M351.03,164.56v30c0,6.7-0.4,13.3-1.3,19.7c-5.4,39.1-26.6,71.9-58.7,88.5
				c-10.6,5.52-22.35,9.24-35.11,10.87c-4.82,0.61-9.79,0.93-14.89,0.93s-10.07-0.32-14.89-0.93c-12.76-1.63-24.51-5.35-35.11-10.87
				c-32.1-16.6-53.3-49.4-58.7-88.5c-0.9-6.4-1.3-13-1.3-19.7v-30v-25l30-25h160l30,25V164.56z"/>
			<path style="fill:#FFE1B2;" d="M341.03,366.26c16.09,5.43,29.3,11.6,40.15,18.05l-0.15,0.25c0,0-19.58,24.58,0,45s15,45,15,45
				h-55V366.26z"/>
			<path style="fill:#FFD7A3;" d="M241.03,314.56c5.1,0,10.07-0.32,14.89-0.93l0.11,0.93l-15,15l-15-15l0.11-0.93
				C230.96,314.24,235.93,314.56,241.03,314.56z"/>
			<path style="fill:#FFD7A3;" d="M226.03,314.56l15,15l15-15l-0.11-0.93c12.76-1.63,24.51-5.35,35.11-10.87v31.8c0,0-20.6,35-50,35
				s-50-35-50-35v-31.8c10.6,5.52,22.35,9.24,35.11,10.87L226.03,314.56z"/>
			<path style="fill:#E7ECED;" d="M291.03,334.56c10.9,12.2,45,30,45,30c1.7,0.5,3.4,1.1,5,1.7v108.3h-200v-108.3
				c1.6-0.6,3.3-1.2,5-1.7c0,0,34.1-17.8,45-30c0,0,20.6,35,50,35S291.03,334.56,291.03,334.56z"/>
			<path style="fill:#FFE1B2;" d="M141.03,366.26v108.3H86.5c0,0-4.59-24.58,15-45c19.58-20.42,0-45,0-45l-0.16-0.28
				C112.1,377.86,125.17,371.71,141.03,366.26z"/>
			<path style="fill:#FFD7A3;" d="M131.03,194.56c0,6.7,0.4,13.3,1.3,19.7c-15.5-2.1-31.3-16.9-31.3-29.7c0-13.8,13.4-20,30-20
				V194.56z"/>
			<path style="fill:#FFE1B2;" d="M51.03,449.56c0,0,0.61-35.61,50.31-65.28l0.16,0.28c0,0,19.58,24.58,0,45
				c-19.59,20.42-15,45-15,45H51.03C51.03,460.56,51.03,449.56,51.03,449.56z"/>
		</g>
		<g>
			<path style="fill:#231F20;" d="M385.012,377.863c-12.042-7.159-25.993-13.44-41.466-18.669c-1.749-0.654-3.255-1.173-4.666-1.608
				c-8.966-4.726-30.895-17.159-40.351-26.084v-24.3c30.386-17.373,51.164-48.543,57.804-86.696
				c17.214-4.929,32.196-21.085,32.196-35.946c0-15.043-11.308-25.026-30-27.094V1.285l-31.713,10.148l-20.418-11.23L281.03,11.366
				L255.661,0.203L236.03,11l-20-11l-20,11l-20-11l-20.787,11.433L123.53,1.285v156.18c-18.692,2.068-30,12.051-30,27.094
				c0,14.861,14.982,31.017,32.196,35.946c6.646,38.168,27.428,69.337,57.804,86.697v24.299
				c-9.456,8.925-31.385,21.358-40.351,26.084c-1.416,0.436-2.927,0.957-4.684,1.615c-15.295,5.262-29.09,11.533-41.001,18.64
				c-52.676,31.448-53.936,69.967-53.964,71.591v32.629h395v-32.542C438.521,447.887,437.7,409.231,385.012,377.863z
				 M348.53,376.951c7.894,3.051,15.259,6.404,22.05,10.02c-6.458,12.187-10.504,31.573,5.037,47.78
				c11.201,11.681,13.27,24.807,13.399,32.309H348.53V376.951z M198.53,314.338c7.285,2.819,14.916,4.884,22.83,6.159l19.67,19.669
				l19.67-19.669c7.915-1.275,15.548-3.34,22.83-6.158v18.039c-4.243,6.418-21.101,29.682-42.5,29.682
				c-21.405,0-38.267-23.278-42.5-29.681V314.338z M373.53,184.56c0,6.126-6.627,14.467-15.266,19.07
				c0.165-2.964,0.266-31.088,0.266-31.088C371.897,174.416,373.53,181.328,373.53,184.56z M138.53,21.834l18.287,5.852
				l19.213-10.567l20,11l20-11l20,11l20.369-11.203l24.631,10.837l24.631-10.837l19.582,10.77l18.287-5.852v101.713l-19.784-16.487
				H158.314l-19.784,16.487V21.834z M108.53,184.56c0-3.232,1.633-10.144,15-12.018c0,0,0.101,28.125,0.266,31.088
				C115.157,199.026,108.53,190.686,108.53,184.56z M139.756,213.216c-0.813-5.793-1.227-12.07-1.227-18.657v-51.487l25.216-21.013
				h154.568l25.216,21.013v51.487c0,6.586-0.413,12.863-1.229,18.674c-5.158,37.347-25.102,67.549-54.734,82.875
				c-9.992,5.204-20.959,8.596-32.589,10.081c-9.125,1.155-18.777,1.154-27.887,0.001c-11.638-1.486-22.604-4.878-32.615-10.092
				C164.861,280.783,144.917,250.58,139.756,213.216z M189.748,345.948c8.518,11.289,26.941,31.112,51.282,31.112
				s42.765-19.823,51.282-31.112c14.112,11.479,41.218,25.694,41.218,25.694v95.418h-185v-95.418
				C148.53,371.642,175.635,357.426,189.748,345.948z M106.913,434.75c15.558-16.225,11.486-35.636,5.015-47.82
				c6.661-3.565,13.874-6.885,21.603-9.919v90.048H93.52C93.655,459.558,95.727,446.411,106.913,434.75z M58.53,449.659
				c0.023-0.523,0.449-7.804,5.713-18.233c4.881-9.67,14.818-23.538,34.771-36.815c3.547,6.863,7.295,19.096-2.927,29.757
				c-14.632,15.252-17.396,32.499-17.545,42.692H58.53V449.659z M423.53,467.06h-19.545c-0.151-10.192-2.917-27.439-17.542-42.691
				c-10.107-10.54-6.411-22.799-2.897-29.71c19.418,12.918,29.182,26.406,34.018,35.82c5.554,10.813,5.946,18.658,5.966,19.163
				V467.06z"/>
			<path style="fill:#231F20;" d="M241.03,232.06h20v-15h-12.5v-32.5h-15v40C233.53,228.702,236.887,232.06,241.03,232.06z"/>
		</g>
	</g>
</g>
<g>
</g>
<g>
</g>
<g>
</g>
<g>
</g>
<g>
</g>
<g>
</g>
<g>
</g>
<g>
</g>
<g>
</g>
<g>
</g>
<g>
</g>
<g>
</g>
<g>
</g>
<g>
</g>
<g>
</g>
</svg>
